<?xml version="1.0" encoding="utf-8"?>
<!-- Generator: Adobe Illustrator 18.0.0, SVG Export Plug-In . SVG Version: 6.00 Build 0)  -->
<!DOCTYPE svg PUBLIC "-//W3C//DTD SVG 1.1//EN" "http://www.w3.org/Graphics/SVG/1.1/DTD/svg11.dtd">
<svg version="1.1" id="Layer_1" xmlns="http://www.w3.org/2000/svg" xmlns:xlink="http://www.w3.org/1999/xlink" x="0px" y="0px"
	 viewBox="0 0 386.7 82.2" enable-background="new 0 0 386.7 82.2" xml:space="preserve">
<linearGradient id="SVGID_1_" gradientUnits="userSpaceOnUse" x1="-2.837905e-07" y1="41.118" x2="386.6646" y2="41.118">
	<stop  offset="0" style="stop-color:#FFFFFF"/>
	<stop  offset="0.457" style="stop-color:#9C9EA0"/>
	<stop  offset="1" style="stop-color:#000000"/>
</linearGradient>
<path fill-rule="evenodd" clip-rule="evenodd" fill="url(#SVGID_1_)" d="M386.7,21.9c0.1-12-68.9-21.3-195.1-21.9
	C140.5-0.2,99.7,1.8,69.2,4.3C24.3,8,1.5,13.5,0,20c-0.1,6.1,0.5,20,1,34.5c4.9,20.4,124.4,27.4,189.2,27.8
	c157.6-1.6,195.3-15.9,195.1-28C385.2,47.4,386.6,34.5,386.7,21.9z M90.8,34.5c53.4-3.6,126.6-6.2,200.6,0.7
	C215.3,39.9,132.5,38,90.8,34.5z"/>
</svg>
