<?xml version="1.0" encoding="utf-8"?>
<!-- Generator: Adobe Illustrator 18.0.0, SVG Export Plug-In . SVG Version: 6.00 Build 0)  -->
<!DOCTYPE svg PUBLIC "-//W3C//DTD SVG 1.1//EN" "http://www.w3.org/Graphics/SVG/1.1/DTD/svg11.dtd">
<svg version="1.1" id="Layer_1" xmlns="http://www.w3.org/2000/svg" xmlns:xlink="http://www.w3.org/1999/xlink" x="0px" y="0px"
	 viewBox="0 0 506.7 107.8" enable-background="new 0 0 506.7 107.8" xml:space="preserve">
<path fill-rule="evenodd" clip-rule="evenodd" fill="#47C0B6" d="M506.7,28.7C506.8,13,416.4,0.7,251,0c-67-0.3-120.4,2.3-160.4,5.6
	C31.9,10.5,2,17.7,0,26.2c-0.1,8,0.7,26.3,1.2,45.2c6.4,26.8,163,35.9,247.9,36.4c206.5-2.1,256-20.8,255.7-36.7
	C504.7,62.1,506.6,45.2,506.7,28.7z M119,45.2c69.9-4.7,165.9-8.1,262.8,0.9C282.1,52.3,173.6,49.8,119,45.2z"/>
</svg>
