<?xml version="1.0" encoding="utf-8"?>
<!-- Generator: Adobe Illustrator 18.0.0, SVG Export Plug-In . SVG Version: 6.00 Build 0)  -->
<!DOCTYPE svg PUBLIC "-//W3C//DTD SVG 1.1//EN" "http://www.w3.org/Graphics/SVG/1.1/DTD/svg11.dtd">
<svg version="1.1" id="Layer_1" xmlns="http://www.w3.org/2000/svg" xmlns:xlink="http://www.w3.org/1999/xlink" x="0px" y="0px"
	 viewBox="0 0 506.7 107.8" enable-background="new 0 0 506.7 107.8" xml:space="preserve">
<path fill-rule="evenodd" clip-rule="evenodd" fill="#7FC242" d="M415.4,43.9c-8.5,0.7-26,2-42.5,2.7c-95,5.4-196.2,3.1-250.3-1.2
	c-0.2,0-0.4,0-0.5,0c-20.2-1.3-37.9-3-43.3-3.7c0-12.8,0-23.3,0-28c0-3.1-2.2-5.5-6-6.5C25.8,12,1.8,18.6,0,26.2
	c-0.1,8,0.7,26.3,1.2,45.2c6.4,26.8,163,35.9,247.9,36.4c84.9-0.9,143.2-4.5,182.5-9.6c1.2-20.6,1.9-36.3,2.2-45.2
	C434.1,43.8,422.3,43.8,415.4,43.9z"/>
<path fill-rule="evenodd" clip-rule="evenodd" fill="#50ACE1" d="M251,0c-67-0.3-120.4,2.3-160.4,5.6c-6.3,0.5-12.2,1.1-17.8,1.6
	c3.7,1,5.9,3.3,6,6.5c0,4.7,0,15.2,0,28c5.4,0.7,23.1,2.5,43.3,3.7c0.2,0,0.4,0,0.5,0c-1.2-0.1-2.5-0.2-3.6-0.3
	c69.9-4.7,165.9-8.1,262.8,0.9c-3,0.2-5.9,0.4-8.9,0.5c16.5-0.7,34-2,42.5-2.7c6.8-0.1,18.7-0.1,18.4,9c-0.3,8.8-1,24.6-2.2,45.2
	c56.3-7.4,73.4-17.7,73.2-27.1c-0.1-8.9,1.8-25.9,1.9-42.4C506.8,13,416.4,0.7,251,0z"/>
</svg>
