<?xml version="1.0" encoding="utf-8"?>
<!-- Generator: Adobe Illustrator 18.0.0, SVG Export Plug-In . SVG Version: 6.00 Build 0)  -->
<!DOCTYPE svg PUBLIC "-//W3C//DTD SVG 1.1//EN" "http://www.w3.org/Graphics/SVG/1.1/DTD/svg11.dtd">
<svg version="1.1" id="Layer_1" xmlns="http://www.w3.org/2000/svg" xmlns:xlink="http://www.w3.org/1999/xlink" x="0px" y="0px"
	 viewBox="0 0 506.7 107.8" enable-background="new 0 0 506.7 107.8" xml:space="preserve">
<path fill-rule="evenodd" clip-rule="evenodd" fill="#FFC817" d="M253,108.4c0.7-21.3,0.9-42.9,1.1-49.2c0.1-2.9,0.6-6.7-0.9-8.8
	c-42.1,0-80.6-1.2-110.2-3c-8.7-0.2-16.7-0.6-23.4-1.3C74.2,41.5,38.2,40,11,29.1C8.3,27.6,3.6,27,0.7,28.5c0,8.6,0.7,25.8,1.3,43.5
	c6.4,26.8,163,35.9,247.9,36.4C250.9,108.5,252,108.5,253,108.4z"/>
<path fill-rule="evenodd" clip-rule="evenodd" fill="#3E56A6" d="M91.3,6.3c-58.7,4.8-88.6,12-90.6,20.6c0,0.5,0,1,0,1.6
	C3.6,27,8.3,27.6,11,29.1C38.2,40,74.2,41.5,119.6,46.2c5.7,0.6,13.1,1,21.7,1.2c-7.9-0.5-15.2-1-21.7-1.5
	c38.2-2.6,84.1-4.8,133.7-4.7c0.4-19.7,0.7-29.2,0.9-32.9c0.1-3.4,0-5.7-0.3-7.5c-0.7,0-1.5,0-2.2,0C184.7,0.5,131.3,3,91.3,6.3z"/>
<path fill-rule="evenodd" clip-rule="evenodd" fill="#FAA21D" d="M253.9,0.7c0.3,1.7,0.4,4.1,0.3,7.5c-0.1,3.7-0.4,13.2-0.9,32.9
	c41.3,0,85.1,1.6,129.2,5.7c-3.8,0.2-7.6,0.5-11.4,0.7c5.2-0.1,10.3-0.3,15.1-0.7c40.9-2.7,77.6-5,109-15.6c4.2-1.7,9.2-4,12.1-1.9
	C507.3,13.7,417.7,1.6,253.9,0.7z"/>
<path fill-rule="evenodd" clip-rule="evenodd" fill="#C9539F" d="M253.1,108.4c203.8-2.2,252.8-20.9,252.5-36.7
	c-0.1-8.9,1.8-25.9,1.9-42.4c0,0,0,0,0-0.1c-2.9-2.1-7.9,0.2-12.1,1.9c-31.4,10.6-68.1,12.9-109,15.6c-5.2,0.3-11.2,0.6-17.9,0.8
	c-38.7,2.1-78.2,2.9-115,2.9c1.3,1.7,1.1,4.3,0.9,8.1C253.9,67,253.4,90.6,253.1,108.4z"/>
</svg>
