<?xml version="1.0" encoding="utf-8"?>
<!-- Generator: Adobe Illustrator 18.0.0, SVG Export Plug-In . SVG Version: 6.00 Build 0)  -->
<!DOCTYPE svg PUBLIC "-//W3C//DTD SVG 1.1//EN" "http://www.w3.org/Graphics/SVG/1.1/DTD/svg11.dtd">
<svg version="1.1" id="Layer_1" xmlns="http://www.w3.org/2000/svg" xmlns:xlink="http://www.w3.org/1999/xlink" x="0px" y="0px"
	 viewBox="0 0 506.7 107.8" enable-background="new 0 0 506.7 107.8" xml:space="preserve">
<path fill="#EF4032" d="M119.6,45.9c0.2,0,0.5,0,0.7,0c-26.8-1.2-54.1-4.7-76.1-8.4C17,32.9,4.8,27.3,4.7,35.9
	C4.6,46,5.2,55.1,5.6,77.6c21.5,19.3,128,27.9,207.5,30.2c0.1-14.1,0.5-26.6,1.2-46c0.2-7.1,3.4-10.1,8.5-11.5
	C181.1,49.7,144.7,48,119.6,45.9z"/>
<path fill-rule="evenodd" clip-rule="evenodd" fill="#3B57A7" d="M4.7,35.9c0.1-8.6,12.2-3,39.5,1.6c22,3.7,49.3,7.2,76.1,8.4
	c7.8-0.5,15.9-1,24.2-1.5c0.2-17.3-0.3-27.8-0.3-36.4c-0.6-3-2.1-4.1-4.2-4.8c-18,0.9-34.2,2-48.7,3.2c-58.7,4.8-88.6,12-90.6,20.6
	c-0.1,8,0.7,26.3,1.2,45.2c0.5,1.9,1.7,3.8,3.7,5.5C5.2,55.1,4.6,46,4.7,35.9z"/>
<path fill-rule="evenodd" clip-rule="evenodd" fill="#AA1D48" d="M251.7,0.7C209,0.6,171.7,1.5,140,3.1c2.1,0.7,3.6,1.7,4.2,4.8
	c0.1,8.6,0.5,19.1,0.3,36.4c66.9-3.8,152-5.6,237.9,2.5c-0.5,0-0.9,0.1-1.4,0.1c11.2-0.2,27.5-1.6,49-3.5c0.9-15.5,1-20.7,1.6-30.2
	c0.1-2.2,1-3.7,2.4-4.6C391,4,329.7,1.1,251.7,0.7z"/>
<path fill-rule="evenodd" clip-rule="evenodd" fill="#5086C6" d="M477.8,90.2c20.6-5.8,27.8-12.4,27.7-18.5
	c-0.1-8.9,1.8-25.9,1.9-42.4c0.1-8.3-25.1-15.6-73.3-20.8c-1.3,0.9-2.2,2.4-2.4,4.6c-0.6,9.5-0.6,14.7-1.6,30.2
	c15.3-1.6,27.9-3.3,32.4-4c8.6-1.5,18.2-2.6,17.8,6.9C479.3,62.4,478.5,77.6,477.8,90.2z"/>
<path fill-rule="evenodd" clip-rule="evenodd" fill="#26B9A0" d="M462.5,39.3c-8.6,1.5-42.8,5.8-78.2,7.5c-2,0.1-4.1,0.2-6.3,0.3
	c-52.7,3.1-107.5,3.9-155.4,3.2c-5.2,1.7-8.1,5.3-8.3,12.7c-0.2,7.3-0.5,23.6-1.1,44.8c13.1,0.4,25.5,0.6,36.6,0.7
	c127.3-1.3,194.9-8.9,228-18.3c0.7-12.6,1.5-27.8,2.5-44C480.8,36.8,471.1,37.9,462.5,39.3z"/>
</svg>
