<?xml version="1.0" encoding="utf-8"?>
<!-- Generator: Adobe Illustrator 18.0.0, SVG Export Plug-In . SVG Version: 6.00 Build 0)  -->
<!DOCTYPE svg PUBLIC "-//W3C//DTD SVG 1.1//EN" "http://www.w3.org/Graphics/SVG/1.1/DTD/svg11.dtd">
<svg version="1.1" id="Layer_1" xmlns="http://www.w3.org/2000/svg" xmlns:xlink="http://www.w3.org/1999/xlink" x="0px" y="0px"
	 viewBox="0 0 506.7 107.8" enable-background="new 0 0 506.7 107.8" xml:space="preserve">
<path fill-rule="evenodd" clip-rule="evenodd" fill="#BE6328" d="M319.3,107c0.2-10.4,0.7-25.7,1.2-45.8c-0.2-6.4-1.9-9.8-9.2-11.3
	c-76.7,1.9-149.9-0.4-191.6-4c0.3,0,0.5,0,0.8-0.1c-8.2-0.3-15.5-0.7-21.7-1.2c-18.4,0.1-24.9-1.2-24.8,5.1
	c0.2,10.5,0.5,31.2,0.7,47.6c54,7.7,126.4,10.8,175.1,11.1C275.3,108.2,298.4,107.7,319.3,107z"/>
<path fill="#2F803E" d="M74,49.7c-0.1-6.3,6.4-5,24.8-5.1c-33.3-3.3-63.4-6.6-84.4-14c0.1-2.4,0-2.2,0-5.3c0-2.2-2.3-3.8-6.3-4.9
	c-4.4,2-6.9,4.2-7.4,6.4c-0.1,8,0.7,26.3,1.2,45.2c2.7,11.4,32.7,19.6,72.7,25.3C74.4,80.9,74.1,60.2,74,49.7z"/>
<path fill-rule="evenodd" clip-rule="evenodd" fill="#3E56A6" d="M14.4,25.3c0,3.1,0.1,2.8,0,5.3c21,7.4,51,10.8,84.4,14
	c10.4,0.3,20.2,0.5,29.4,0.7c19.4-1.2,40.6-2.3,63.1-3.1c-0.1-19.6,0-25.6,0-35.6c0.1-2.4-0.5-4.1-1.5-5.3
	c-38.9,0.9-71.7,2.8-98.5,5C48,9.9,20.4,14.8,8.1,20.5C12.1,21.5,14.4,23.1,14.4,25.3z"/>
<path fill="#ED3594" d="M434.4,8.6c-43-4.6-104.5-7.6-182.7-7.9c-22.1-0.1-42.8,0.1-61.9,0.6c1,1.2,1.6,2.9,1.5,5.3
	c0,10-0.1,16,0,35.6c57.6-2,123.8-1.7,190.6,4.5c1.1,0,2,0,2.8,0.1c8.7-0.6,34.1-2.7,44.2-3.5c0.6-12.7,1.1-17.6,1.6-30.8
	C430.5,11,432,9.6,434.4,8.6z"/>
<path fill-rule="evenodd" clip-rule="evenodd" fill="#39C6F4" d="M434.4,8.6c-2.4,1-4,2.4-4,3.9c-0.5,13.2-1,18.1-1.6,30.9
	c18.7-1.6,35.6-3.7,47.7-6.6c6.9-1.7,23.2-6.3,22.7,5c-0.5,12.5-1.3,29.2-1.8,40.5c5.8-3.5,8.1-7.1,8-10.6
	c-0.1-8.9,1.8-25.9,1.9-42.4C507.4,21.1,482.4,13.8,434.4,8.6z"/>
<path fill-rule="evenodd" clip-rule="evenodd" fill="#E81E25" d="M476.5,36.9c-22.1,5.2-60.4,7.9-96.5,9.7c0.8,0.1,1.6,0.1,2.4,0.2
	c-23.6,1.5-47.7,2.4-71.5,3c6.4,1.2,9.8,4.1,9.5,13.5c-0.2,6.3-0.6,20.6-1.3,43.7C430.8,103.1,480,93,497.5,82.4
	c0.5-11.4,1.3-28,1.8-40.5C499.7,30.6,483.5,35.2,476.5,36.9z"/>
</svg>
