<?xml version="1.0" encoding="utf-8"?>
<!-- Generator: Adobe Illustrator 18.0.0, SVG Export Plug-In . SVG Version: 6.00 Build 0)  -->
<!DOCTYPE svg PUBLIC "-//W3C//DTD SVG 1.1//EN" "http://www.w3.org/Graphics/SVG/1.1/DTD/svg11.dtd">
<svg version="1.1" id="Layer_1" xmlns="http://www.w3.org/2000/svg" xmlns:xlink="http://www.w3.org/1999/xlink" x="0px" y="0px"
	 viewBox="0 0 506.7 107.8" enable-background="new 0 0 506.7 107.8" xml:space="preserve">
<path fill="#529DD6" d="M27.5,34.7c-7.1-1.7-12.3,1-12.1,6.2c0.6,14.7,0.9,29.7,1.3,43.1c28.4,11.9,92.9,18.7,153.5,22
	c0-11.9-0.1-28.5,0-48.3c0.1-2.8-1.2-8.7,9.3-8.4c-40.2-1.4-95.3-5.1-133.6-11.2C35.8,36.8,28.8,35,27.5,34.7z"/>
<path fill-rule="evenodd" clip-rule="evenodd" fill="#2DB34A" d="M15.3,40.9c-0.2-5.2,5.1-8,12.1-6.2c1.3,0.3,8.3,2.1,18.4,3.4
	c-0.2-8.4-0.9-14.5-0.6-20.6c0.2-4-2.2-4.8-5.3-5.3C15,16.4,2,21.4,0.7,26.9c-0.1,8,0.7,26.3,1.2,45.2C3,76.5,8.2,80.5,16.6,84
	C16.2,70.6,15.9,55.6,15.3,40.9z"/>
<path fill-rule="evenodd" clip-rule="evenodd" fill="#9A4C9D" d="M119.6,45.9c31.4-2.1,68.1-4,107.8-4.6c0.3-17.1,0.4-29,0.6-36.9
	c0.1-2.3,0.4-3.3-0.7-3.7c-55.7,0.3-101,2.7-136,5.6C70.6,8,53.5,10,39.9,12.3c3.1,0.4,5.5,1.3,5.3,5.3c-0.3,6,0.4,12.1,0.6,20.6
	c26,4,54.2,6.7,80,8.3C123.7,46.2,121.6,46.1,119.6,45.9z"/>
<path fill-rule="evenodd" clip-rule="evenodd" fill="#EE3484" d="M251.7,0.7c-8.3,0-16.5,0-24.4,0c1.1,0.4,0.8,1.4,0.7,3.7
	c-0.2,7.9-0.3,19.7-0.6,36.9c48.6-0.7,101.7,0.5,155.1,5.5c-2,0.1-4,0.2-6,0.4c17.2-0.6,36.2-1.8,53.6-4.1
	c0.6-14.1,1.4-23.1,1.9-30.2c0.2-2.5,0.9-3.7,1.9-4.3C390.9,4,329.6,1.1,251.7,0.7z"/>
<path fill-rule="evenodd" clip-rule="evenodd" fill="#6653A3" d="M433.9,8.6c-1,0.5-1.8,1.8-1.9,4.3c-0.5,7.1-1.2,16.5-1.9,30.5
	c25.3-2.6,52.9-6.5,62.6-11.5c7.4-3.9,12.2-1.6,14.6-0.3c0-0.7,0-1.5,0-2.2C507.4,21.1,482.2,13.8,433.9,8.6z"/>
<path fill="#BFA930" d="M505.5,71.7c-0.1-8.9,1.8-25.9,1.9-42.4c0-0.2,0-0.5-0.1-0.7c-2.4-1.1-7.1-0.7-14.6,3.2
	c-18.4,9.6-95.5,14.8-114.9,15.3c-0.2,0-0.4,0-0.6,0c-0.6,0-1.3,0.1-1.9,0.1c8.2,1.1,14.5,4.2,14.7,8.3c0,6.4-1.3,36.5-1.5,47.7
	C480,96.2,505.7,83.2,505.5,71.7z"/>
<path fill-rule="evenodd" clip-rule="evenodd" fill="#655AA7" d="M375.3,47.3c-69.9,4-143.4,3.9-199.1,1.9c-4.2,1.2-6,3.1-6,5.2
	c-0.1,13.2-0.1,37.4-0.1,51.7c28.9,1.6,56.9,2.3,79.7,2.5c57.7-0.6,103.1-2.5,138.6-5.2c0.2-11.2,1.5-41.3,1.5-47.7
	C389.8,51.4,383.5,48.4,375.3,47.3z"/>
</svg>
